<?xml version="1.0" encoding="utf-8"?>
<!-- Generator: Adobe Illustrator 26.4.1, SVG Export Plug-In . SVG Version: 6.00 Build 0)  -->
<svg version="1.1" id="Layer_1" xmlns="http://www.w3.org/2000/svg" xmlns:xlink="http://www.w3.org/1999/xlink" x="0px" y="0px"
	 viewBox="0 0 1610.2 113.1" style="fill: #ff0; stroke: #000; stroke-width: 0.5; enable-background:new 0 0 1610.2 113.1;" xml:space="preserve">
<g>
	<path d="M94.6,84.2c0-26.6-91.3-5.1-91.3-52.1c0-20.7,26-30.8,57.7-30.8c22.6,0,43.3,5.1,54.6,15.2l-7.4,17.3
		c-12-13.8-29-20.7-50.7-20.7c-26.8,0-31.8,6.2-31.8,15.3c0,30.2,93.3,10.6,93.3,51.8c0,19.9-22.9,32.9-63.7,32.9
		c-23.9,0-44-5.1-55.2-12.3l7.4-17.3C19.6,94.2,36,100,55.8,100C88.1,100,94.6,93.7,94.6,84.2z"/>
	<path d="M129,57.4V4h21.7v53.1c0,25.6,12.6,43.4,38.2,43.4s38.2-17.9,38.2-43.4V4h21.7v53.4c0,36.7-26.6,55.6-59.8,55.6
		C155.6,113.1,129,94.2,129,57.4z"/>
	<path d="M270.6,32V3.7h15.2l80,78.8c0-26.2,0-34.8-1.5-78.8h18.1C381,47.6,381,56.1,381,82.3v28.6h-15.2l-80-80.8v2.2
		c0,26.2-0.3,34.4,1.5,78.5h-18.1C270.9,66.6,270.6,58.2,270.6,32z"/>
	<path d="M406.8,3.7h51.5c41.8,0,68.3,16.5,68.3,52.8c0.3,34.5-26.2,53.7-68,54.3h-51.8V3.7z M428.6,14.7v84.6h29.9
		c29.5,0,44.3-16.4,44.3-43c-0.1-28.1-15-42.1-44.3-41.7H428.6z"/>
	<path d="M660.6,110.8h-25.1l-15.9-30.2H559c-2.7,8.5-5.8,18.1-9.5,30.2h-26.3L579.4,3.7h23.4L660.6,110.8z M613,68.1L586.7,18
		c-10.9,20.1-16.8,32.4-23.4,50.1H613z"/>
	<path d="M706.8,110.8h-21.7V67.7l-59.4-64h30.9l43.9,49.1c15.3-14.9,22.3-24.4,34.7-49.1H760l-53.3,61.6V110.8z"/>
	<path d="M838.4,3.7h21.7v0.1h34.2c33.9,0,52.5,6.4,52.5,28.6c0,10.3-3.6,17.3-10.7,21.6c11,5.1,16.1,13.2,16.1,25.4
		c0,22.2-15.5,31.2-55.8,31.2h-36.3v0.1h-21.7V3.7z M903.1,48.3c15.8-0.9,20.5-4.9,20.7-15.9c-0.1-12.8-6.5-16.1-29-16.1h-34.7v32.1
		h34.7c0.6,0,1,0,1.6,0v-0.3C898.8,48.2,901,48.2,903.1,48.3z M860.1,61v37.2h36.7c26.6,0,32.1-6,32.3-18.7
		C929,66.6,923.4,61,896.8,61H860.1z"/>
	<path d="M971.3,3.7h53.6c37.3,0,56.1,10.3,56.1,35.6c0,18-9.4,28.4-28,32.9l32.7,38.7h-29l-30.9-36h-32.7v36h-21.7V3.7z
		 M1025.3,15.8h-32.3v46.9h33.2c25.7,0,30.8-7.3,30.9-23.4C1057,23.2,1051.8,15.8,1025.3,15.8z"/>
	<path d="M1092.6,57.4V4h21.7v53.1c0,25.6,12.6,43.4,38.2,43.4c25.6,0,38.2-17.9,38.2-43.4V4h21.7v53.4c0,36.7-26.6,55.6-59.8,55.6
		C1119.2,113.1,1092.6,94.2,1092.6,57.4z"/>
	<path d="M1234.2,32V3.7h15.2l80,78.8c0-26.2,0-34.8-1.5-78.8h18.1c-1.5,43.9-1.5,52.4-1.5,78.5v28.6h-15.2l-80-80.8v2.2
		c0,26.2-0.3,34.4,1.5,78.5h-18.1C1234.5,66.6,1234.2,58.2,1234.2,32z"/>
	<path d="M1360.9,57.4c0-38.2,30.8-57.4,68.6-57.4c20.7,0,39.4,4.2,51.9,15.2l-7.4,17.3c-13.5-15.8-22.5-20.7-44.3-20.7
		c-32.7,0-44,23.8-44,44.9c0,25.6,11.3,44.2,44,44.2c21.9,0,30.8-4.9,44.3-20.7l7.4,17.3c-12.5,11-31.2,15.3-51.6,15.6
		C1391.4,113.7,1360.6,94.2,1360.9,57.4z"/>
	<path d="M1496.1,3.7h21.7v43.7h70.7V3.7h21.7v107.1h-21.7v-50h-70.7v50h-21.7V3.7z"/>
</g>
</svg>
