<?xml version="1.0" encoding="utf-8"?>
<!-- Generator: Adobe Illustrator 24.0.3, SVG Export Plug-In . SVG Version: 6.00 Build 0)  -->
<svg version="1.1" id="Layer_1" xmlns="http://www.w3.org/2000/svg" xmlns:xlink="http://www.w3.org/1999/xlink" x="0px" y="0px"
	 viewBox="0 0 204.2 43.4" style="fill: #ff0; stroke: #000; stroke-width: 0.5; enable-background:new 0 0 204.2 43.4;" xml:space="preserve">
<g>
	<path d="M11.8,19.9c-0.9-0.8-2.2-1.4-4.1-1.9c-1.7-0.4-2.3-0.9-2.5-1.2c-0.6-0.7-1-1.8-1-3.3c0-0.9,0.1-2.1,0.7-3.2
		c0.4-0.7,0.9-1,1.7-1c0.7,0,1.3,0.4,1.8,1.2c0.3,0.4,0.5,1,0.7,1.7l0.1,0.3l4-0.9l-0.1-0.3c-0.2-0.8-0.4-1.4-0.7-2
		C12,8.3,11.4,7.6,10.7,7C9.9,6.5,8.6,6.2,6.9,6.2C5.3,6.2,4,6.6,3.1,7.3c-0.9,0.7-1.5,1.6-2,2.9c-0.4,1.2-0.7,2.6-0.7,4.3
		c0,1.5,0.2,2.9,0.6,4.1c0.4,1.3,1,2.2,1.6,2.7c0.7,0.6,2.1,1.3,4,2c1.8,0.7,2.3,1.1,2.5,1.4c0.7,0.8,1,2,1,3.6
		c0,1.3-0.3,2.5-0.8,3.3c-0.5,0.9-1.2,1.3-2,1.3c-0.8,0-1.4-0.4-1.9-1.1c-0.4-0.6-0.7-1.4-1-2.5l-0.1-0.3L0,29.8l0.1,0.3
		C0.4,31.7,0.9,33,1.6,34c1,1.5,2.9,2.3,5.5,2.3c1.8,0,3.3-0.5,4.3-1.5c1-0.9,1.7-2.1,2.1-3.6c0.4-1.5,0.6-2.9,0.6-4.4
		c0-1.5-0.2-2.8-0.6-4C13.2,21.6,12.6,20.6,11.8,19.9z"/>
	<path d="M25.4,20.7c0,3.4-0.3,5.7-0.8,7.2c-0.4,1-1,2.2-2,2.2c-0.9,0-1.5-0.9-1.8-1.7c-0.5-1.2-0.7-3-0.7-5.4V6.9h-4.5v18.7
		c0,3.7,0.4,6.4,1.1,8.1c0.8,1.8,1.8,2.6,3.3,2.6c1.1,0,2-0.4,2.8-1.2c0.7-0.8,1.4-2.2,2.1-4.1l1-2.7v7.3h4.1V6.9h-4.4V20.7z"/>
	<path d="M41.3,6.2c-1.1,0-2,0.4-2.7,1.3c-0.7,0.8-1.4,2.2-2.1,4.1l-1,2.7V6.9h-4.1v28.7h4.4V21.9c0-3.4,0.3-5.7,0.8-7.2
		c0.4-1,1-2.2,2.1-2.2c0.9,0,1.5,0.9,1.8,1.7c0.5,1.2,0.7,3,0.7,5.4v15.9h4.5V16.9c0-3.7-0.4-6.5-1.1-8.1C43.8,7,42.7,6.2,41.3,6.2z
		"/>
	<path d="M57.3,11.8l-0.9-2.2c-0.5-1.1-1-2-1.7-2.5c-0.7-0.6-1.4-0.9-2.2-0.9c-1.7,0-3,1.2-4.1,3.8c-1,2.5-1.5,6.2-1.5,11
		c0,4.3,0.5,8.1,1.4,11c0.9,2.9,2.3,4.3,4.1,4.3c0.9,0,1.8-0.4,2.5-1.3c0.4-0.4,1-1.4,1.8-3.6l1-2.7v6.9h4.1V0h-4.5V11.8z
		 M56.5,14.4c0.6,1.6,0.9,3.8,0.9,6.8c0,3.2-0.3,5.6-0.9,7.1c-0.4,1.1-1.1,2.3-2.2,2.3c-1,0-1.7-1.3-2.1-2.3
		c-0.6-1.6-0.9-3.8-0.9-6.9c0-3.2,0.3-5.6,0.8-7.1c0.4-1,1.1-2.3,2-2.3C55.3,12.1,56,13.3,56.5,14.4z"/>
	<path d="M78.4,35.2c0-0.3-0.1-0.6-0.1-0.9c-0.1-1-0.2-2.3-0.2-3.9V16.3c0-1.3-0.1-2.7-0.4-4.1c-0.2-1.4-0.5-2.4-0.9-3.1
		c-0.6-1.2-1.4-1.9-2.3-2.3c-1-0.4-2.3-0.6-4-0.6c-1,0-2,0.2-2.9,0.5c-0.8,0.3-1.5,0.8-2,1.3c-0.6,0.7-1.1,1.6-1.4,2.6
		c-0.2,0.5-0.3,1.2-0.5,2.1l0,0.3l4.2,1l0.1-0.3c0.2-1,0.5-1.8,0.9-2.3c0.6-0.8,1.3-1.1,2.3-1.1c0.8,0,1.4,0.4,1.8,1.3
		c0.5,1,0.7,2.4,0.7,4.4v1.2l-0.5,0.4c-0.7,0.6-1.4,1.1-2,1.5c-0.6,0.4-2,1-4.1,2c-2,0.9-2.9,2.1-3.3,3.1c-0.5,1.2-0.8,2.8-0.8,4.8
		c0,2.1,0.4,3.8,1.1,5.2c0.8,1.5,2,2.3,3.7,2.3c1.3,0,2.4-0.4,3.3-1.3c0.6-0.6,1.3-1.6,2-3l0.7-1.5l0.2,2.5c0.1,1.1,0.1,1.6,0.2,1.7
		c0,0.1,0,0.3,0.1,0.6l0.1,0.2h4L78.4,35.2z M70,32.8c-0.7,0-1.3-0.4-1.7-1.3c-0.5-0.9-0.7-2.2-0.7-3.7c0-1.3,0.2-2.5,0.7-3.5
		c0.4-0.9,1.2-1.6,2.4-2.3c0.8-0.5,1.6-1,2.4-1.6l0.7-0.5V24c0,1.8-0.1,3.3-0.4,4.5c-0.3,1.2-0.8,2.3-1.4,3.1
		C71.3,32.4,70.7,32.8,70,32.8z"/>
	<path d="M86.6,31.1L83.1,6.9h-4.6l5.3,28.2l0,0.1l0,0.1c0,0,0.4,2.2,0.7,3.3c-0.3,0.5-3.7,0.8-9.5,0.6l-0.3,0v4.3h0.3
		c12.4,0,13.7-0.8,13.8-1.1l0.6-5.7l4.4-29.4l0.1-0.4h-4.2L86.6,31.1z"/>
	<path d="M111.6,21.9c-0.6-0.8-1.5-1.4-2.7-2c1.1-0.6,1.9-1.4,2.5-2.3c0.6-1.1,1-2.4,1-3.9c0-1.4-0.3-2.6-0.7-3.8
		c-0.5-1.2-1.2-2.2-2.1-2.8c-0.9-0.6-2.3-0.9-4.4-0.9h-8.3c-0.2,0-0.4,0.2-0.4,0.4v0.8c0,0.2,0.2,0.4,0.4,0.4c0.9,0,1.2,0.2,1.4,0.3
		c0.2,0.2,0.4,0.4,0.5,0.7c0.1,0.2,0.2,0.9,0.2,2.8v18.4c0,1.9-0.1,2.6-0.2,2.7c-0.1,0.3-0.2,0.5-0.5,0.7c-0.1,0.1-0.4,0.3-1.4,0.3
		c-0.2,0-0.4,0.2-0.4,0.4v0.8c0,0.2,0.2,0.4,0.4,0.4h8.8c2.6,0,4.6-0.9,5.9-2.7c1.1-1.5,1.7-3.3,1.7-5.6
		C113.1,24.9,112.6,23.2,111.6,21.9z M103.6,8.6c0.9,0,1.6,0.2,2,0.5c0.5,0.4,0.9,0.9,1.1,1.6c0.3,0.7,0.4,1.7,0.4,2.9
		c0,1.2-0.1,2.2-0.4,2.9c-0.3,0.7-0.7,1.3-1.2,1.7c-0.4,0.3-1.1,0.5-2,0.6V8.6z M107.4,30.3c-0.3,0.9-0.7,1.5-1.2,1.9
		c-0.5,0.4-1,0.6-1.6,0.6c-0.3,0-0.5-0.1-0.7-0.4c-0.2-0.3-0.3-0.8-0.3-1.5l0-1v-8.6c1,0,1.8,0.2,2.3,0.5c0.6,0.4,1,1,1.4,2
		c0.4,1,0.5,2.1,0.5,3.4C107.8,28.4,107.7,29.4,107.4,30.3z"/>
	<path d="M131.5,33.7c-0.3,0-0.6-0.2-0.9-0.5c-0.1-0.2-0.5-0.7-1.1-2.2l-4-9.2c0.9-0.5,1.7-1.1,2.2-1.9c1-1.4,1.5-3.3,1.5-5.4
		c0-1.8-0.3-3.4-1-4.7c-0.7-1.4-1.5-2.3-2.6-2.8c-1-0.5-2.6-0.8-4.8-0.8h-8c-0.2,0-0.4,0.2-0.4,0.4v0.8c0,0.2,0.2,0.4,0.4,0.4
		c0.9,0,1.2,0.2,1.4,0.3c0.2,0.2,0.4,0.4,0.5,0.7c0.1,0.2,0.2,0.9,0.2,2.8v18.4c0,1.9-0.1,2.6-0.2,2.7c-0.1,0.3-0.2,0.5-0.5,0.7
		c-0.1,0.1-0.4,0.3-1.4,0.3c-0.2,0-0.4,0.2-0.4,0.4v0.8c0,0.2,0.2,0.4,0.4,0.4h8.8c0.2,0,0.4-0.2,0.4-0.4v-0.8
		c0-0.2-0.2-0.4-0.4-0.4c-0.9,0-1.2-0.2-1.4-0.3c-0.2-0.2-0.4-0.4-0.5-0.7c-0.1-0.2-0.2-0.9-0.2-2.8v-7.5h0.4l5.4,12.6
		c0.1,0.2,0.2,0.3,0.4,0.3h5.4c0.2,0,0.4-0.2,0.4-0.4v-0.8C131.9,33.9,131.8,33.7,131.5,33.7z M123.7,17.9c-0.3,0.8-0.7,1.4-1.2,1.7
		c-0.5,0.3-1.3,0.5-2.4,0.5h-0.3V8.5h0.9c1.2,0,2.1,0.4,2.6,1.3c0.6,1,0.9,2.5,0.9,4.5C124.2,15.8,124.1,17,123.7,17.9z"/>
	<path d="M147.3,6.1h-6c-0.2,0-0.4,0.2-0.4,0.4v0.8c0,0.2,0.2,0.4,0.4,0.4c0.6,0,1,0.1,1.4,0.4c0.1,0.1,0.3,0.3,0.5,0.9
		c0.1,0.5,0.2,1.4,0.2,2.6v11.5c0,3-0.2,5-0.5,6.2c-0.3,1.1-0.8,2-1.4,2.7c-0.6,0.6-1.3,0.9-2.1,0.9c-0.7,0-1.3-0.2-1.7-0.7
		c-0.5-0.5-0.8-1.1-1-1.9c-0.2-0.8-0.3-2.4-0.3-4.9V11.7c0-2,0.1-2.7,0.1-2.9c0.1-0.3,0.2-0.6,0.4-0.7c0.1-0.1,0.4-0.2,1.1-0.2h0.4
		c0.2,0,0.4-0.2,0.4-0.4V6.6c0-0.2-0.2-0.4-0.4-0.4h-8.9c-0.2,0-0.4,0.2-0.4,0.4v0.8c0,0.1,0,0.2,0.1,0.3c0.1,0.1,0.2,0.1,0.3,0.1
		c0.8,0,1.1,0.1,1.2,0.2c0.2,0.2,0.3,0.4,0.4,0.7c0.1,0.2,0.1,0.8,0.1,2.9v13.9c0,2.4,0.2,4.3,0.7,5.8c0.5,1.5,1.3,2.7,2.5,3.6
		c0.9,0.7,2.1,1.1,3.7,1.1c1.9,0,3.4-0.7,4.5-2c1.1-1.3,1.8-2.7,2-4.3c0.3-1.5,0.4-3.9,0.4-7.3V11.7c0-1.1,0.1-1.9,0.2-2.3
		c0.1-0.6,0.3-1,0.6-1.2c0.2-0.2,0.5-0.4,0.9-0.4h0.4c0.2,0,0.4-0.2,0.4-0.4V6.6C147.7,6.3,147.6,6.1,147.3,6.1z"/>
	<path d="M167.1,7.3V6.6c0-0.2-0.2-0.4-0.4-0.4H161c-0.2,0-0.4,0.2-0.4,0.4v0.8c0,0.1,0,0.2,0.1,0.3c0.1,0.1,0.2,0.1,0.3,0.1
		c0.8,0,1.3,0.3,1.7,0.9c0.2,0.4,0.4,1.2,0.4,3.2v10.3l-7.7-15.9c-0.1-0.1-0.2-0.2-0.4-0.2h-6.1c-0.2,0-0.4,0.2-0.4,0.4v0.8
		c0,0.2,0.2,0.4,0.4,0.4c0.4,0,0.8,0.1,1,0.3c0.2,0.1,0.4,0.5,0.9,1.3l0.3,0.7v19.9c0,1.4-0.2,2.4-0.5,3c-0.3,0.5-0.8,0.7-1.6,0.8
		c-0.2,0-0.4,0.2-0.4,0.4v0.8c0,0.2,0.2,0.4,0.4,0.4h6.1c0.2,0,0.4-0.2,0.4-0.4v-0.8c0-0.2-0.2-0.4-0.4-0.4h-0.4
		c-0.5,0-0.9-0.2-1.2-0.7c-0.3-0.3-0.6-1.1-0.6-3V13.8l10.9,22c0.1,0.1,0.2,0.2,0.4,0.2h0.4c0.2,0,0.4-0.2,0.4-0.4V11.9
		c0-1.3,0.1-2.2,0.2-2.7c0.1-0.5,0.3-0.8,0.5-1c0.1-0.1,0.4-0.3,1.3-0.5C166.9,7.7,167.1,7.5,167.1,7.3z"/>
	<path d="M183,5.5h-0.5c-0.2,0-0.4,0.2-0.4,0.4c-0.1,0.8-0.2,1.2-0.3,1.4c-0.2,0.3-0.3,0.3-0.3,0.3c0,0-0.3-0.1-1.3-0.7
		c-1.4-0.9-2.8-1.4-4.1-1.4c-1.7,0-3.4,0.7-4.9,2.1c-1.5,1.4-2.7,3.3-3.6,5.8c-0.9,2.5-1.3,5.1-1.3,7.8c0,2.6,0.4,5.1,1.2,7.4
		c0.8,2.3,2,4.2,3.4,5.4c1.5,1.3,3.2,1.9,5.2,1.9c1.5,0,2.8-0.4,3.9-1.2c1.1-0.8,2.1-2,3.1-3.7c0-0.1,0.1-0.2,0.1-0.2v-2.4
		c0-0.2-0.1-0.4-0.3-0.4c-0.2-0.1-0.4,0-0.5,0.2c-1,1.8-1.9,3.2-2.8,3.9c-0.8,0.7-1.7,1.1-2.7,1.1c-1.2,0-2.2-0.5-2.9-1.4
		c-0.8-1-1.4-2.5-1.7-4.5c-0.4-2-0.6-4.3-0.6-6.8c0-2.5,0.3-4.8,0.8-6.9c0.4-1.6,1-2.8,1.9-3.8c0.8-0.9,1.7-1.4,2.7-1.4
		c1.2,0,2.2,0.6,3.1,1.9c1,1.3,1.6,3.2,2,5.7c0,0.2,0.2,0.4,0.4,0.4h0.5c0.2,0,0.4-0.2,0.4-0.4V5.9C183.4,5.7,183.3,5.5,183,5.5z"/>
	<path d="M201.9,8.9c0.1-0.5,0.3-0.7,0.4-0.8c0,0,0,0,0,0c0.2-0.2,0.5-0.3,0.9-0.3h0.6c0.2,0,0.4-0.2,0.4-0.4V6.6
		c0-0.2-0.2-0.4-0.4-0.4h-9c-0.2,0-0.4,0.2-0.4,0.4v0.8c0,0.2,0.2,0.4,0.4,0.4h0.6c0.4,0,0.7,0.1,0.9,0.3c0.2,0.2,0.4,0.5,0.4,0.7
		c0,0.2,0.1,0.8,0.1,2.6V19h-5.2v-7.6c0-1.8,0.1-2.3,0.1-2.5c0.1-0.5,0.3-0.7,0.4-0.8c0.2-0.2,0.5-0.3,0.9-0.3h0.6
		c0.2,0,0.4-0.2,0.4-0.4V6.6c0-0.2-0.2-0.4-0.4-0.4h-9c-0.2,0-0.4,0.2-0.4,0.4v0.8c0,0.2,0.2,0.4,0.4,0.4h0.6c0.4,0,0.7,0.1,0.9,0.3
		c0.2,0.2,0.4,0.5,0.4,0.7c0,0.2,0.1,0.8,0.1,2.6V30c0,1.8-0.1,2.3-0.1,2.5c-0.1,0.5-0.3,0.7-0.4,0.8c-0.2,0.2-0.5,0.3-0.9,0.3h-0.6
		c-0.2,0-0.4,0.2-0.4,0.4v0.8c0,0.2,0.2,0.4,0.4,0.4h9c0.2,0,0.4-0.2,0.4-0.4v-0.8c0-0.2-0.2-0.4-0.4-0.4H193
		c-0.4,0-0.7-0.1-0.9-0.3c-0.2-0.2-0.4-0.5-0.4-0.7c0-0.2-0.1-0.8-0.1-2.6v-8.3h5.2V30c0,1.8-0.1,2.3-0.1,2.5
		c-0.1,0.5-0.3,0.7-0.4,0.8c0,0,0,0,0,0c-0.2,0.2-0.5,0.3-0.9,0.3h-0.6c-0.2,0-0.4,0.2-0.4,0.4v0.8c0,0.2,0.2,0.4,0.4,0.4h9
		c0.2,0,0.4-0.2,0.4-0.4v-0.8c0-0.2-0.2-0.4-0.4-0.4h-0.6c-0.4,0-0.7-0.1-0.9-0.3c-0.2-0.2-0.4-0.5-0.4-0.7
		c-0.1-0.2-0.1-0.8-0.1-2.6V11.4C201.8,9.6,201.8,9.1,201.9,8.9z"/>
</g>
</svg>
